<svg width="139" height="127" viewBox="0 0 139 127" fill="none" xmlns="http://www.w3.org/2000/svg">
<mask id="mask0_2008_9" style="mask-type:luminance" maskUnits="userSpaceOnUse" x="0" y="0" width="139" height="127">
<path d="M0 0H139V126.979H0V0Z" fill="white"/>
</mask>
<g mask="url(#mask0_2008_9)">
<path fill-rule="evenodd" clip-rule="evenodd" d="M19.0678 61.1407L26.1199 48.9324L45.7292 14.9584L46.8178 13.0782L46.8074 13.0678L46.8438 13.0001L46.8855 12.9272L47.9115 11.3126L48.7813 10.1251L49.6563 9.05217C49.7345 8.95842 49.8126 8.86988 49.8959 8.78134L51.4532 7.17196L52.6615 6.09905C52.9949 5.82301 53.3334 5.55738 53.6772 5.29696L54.4167 4.76051L55.2136 4.22405L56.0782 3.68759L56.5417 3.42196L58.724 2.3178L59.9428 1.81259C60.4428 1.61467 60.948 1.43759 61.4532 1.27613L62.672 0.916755L64.6459 0.468838C65.2345 0.359464 65.8178 0.270921 66.4115 0.198005C69.4897 -0.161371 72.5313 0.0209219 75.547 0.734463C76.7136 1.01571 77.849 1.37509 78.9636 1.80738L79.6355 2.08342L81.3386 2.8803L82.8074 3.70321L82.8282 3.71884L83.0365 3.84384L83.8022 4.32821L84.7813 5.00009L85.5261 5.56259L85.8751 5.83863L87.1772 6.96363L88.4688 8.24488C88.5522 8.33863 88.6355 8.42196 88.7136 8.51571L89.1876 9.05217L89.2865 9.16155L89.7293 9.69801L90.0938 10.1563L90.6615 10.9324L91.2605 11.8126L91.8855 12.8126L92.2136 13.3907L92.4897 13.8855L135.083 87.6511L135.302 87.9845L135.599 88.5209L135.844 89.0053L135.901 89.1095L136.625 90.6095L136.63 90.6199L137.182 91.9532C137.214 92.0418 137.245 92.1303 137.281 92.2188L137.484 92.797L138.037 94.6355C138.063 94.7293 138.083 94.8126 138.104 94.9063L138.5 96.7813C138.516 96.8699 138.531 96.9584 138.547 97.0522L138.708 98.2397L138.776 98.9272C138.787 99.0157 138.792 99.1095 138.797 99.1928L138.875 101.073C138.875 101.162 138.875 101.25 138.875 101.339L138.792 103.214C138.787 103.307 138.776 103.396 138.771 103.484L138.719 104.021L138.443 105.896C138.427 105.99 138.412 106.073 138.396 106.167L138.25 106.865L137.729 108.844L137.646 109.115L137.37 109.917L137.162 110.49C136.813 111.417 136.386 112.37 135.927 113.245L134.63 115.469L133.948 116.464L133.432 117.162C133.359 117.25 133.292 117.344 133.224 117.427L131.583 119.307C131.495 119.396 131.406 119.484 131.323 119.573L130.193 120.646C129.886 120.922 129.573 121.188 129.25 121.448L128.568 121.984L128.208 122.255C127.958 122.438 127.703 122.615 127.448 122.792L126.25 123.573L125.271 124.125L124.495 124.537C123.307 125.125 122.193 125.599 120.922 126.016C120.307 126.219 119.688 126.396 119.063 126.552L117.865 126.818C117.328 126.927 116.792 127.016 116.25 127.089C113.943 127.391 111.682 127.396 109.344 127.089H109.339L107.667 126.807C106.125 126.5 104.609 126.057 103.151 125.479L101.104 124.568L99.797 123.865L98.4793 123.063L97.3178 122.255L96.8074 121.88L95.3334 120.651L95.0001 120.344L94.2032 119.578C94.1199 119.484 94.0313 119.401 93.9428 119.307L92.7449 117.969C92.6668 117.88 92.5938 117.792 92.5209 117.698L92.0938 117.162L91.9428 116.964L91.3126 116.094L91.224 115.969L90.5053 114.865L90.4584 114.792L89.948 113.943L89.6407 113.406L66.1459 72.7136L61.1355 64.0418L60.073 62.1668C60.0313 62.0782 59.9897 61.9897 59.9532 61.8959L59.8438 61.6303L59.5574 60.5574C59.5417 60.4688 59.5313 60.3803 59.5157 60.2865C59.4584 59.849 59.4532 59.3907 59.4949 58.948C59.5001 58.8595 59.5105 58.7709 59.5261 58.6824L59.5626 58.448L59.8699 57.3386C59.9063 57.2449 59.9428 57.1563 59.9792 57.0678L60.1042 56.8022C60.1511 56.7084 60.1928 56.6199 60.2449 56.5313L60.7813 55.7293C60.8543 55.6355 60.9272 55.547 61.0001 55.4584C61.3595 55.0522 61.7865 54.6824 62.2501 54.3855L62.5626 54.198C63.0522 53.922 63.5678 53.7136 64.0886 53.5834H64.0938C65.0886 53.3334 66.1095 53.3438 67.073 53.5834L67.8907 53.849C68.2501 53.9949 68.5938 54.1772 68.922 54.3855C69.172 54.547 69.4063 54.7293 69.6303 54.922C69.8178 55.0886 70.0001 55.2657 70.1668 55.4584C70.2449 55.547 70.3178 55.6355 70.3907 55.7293L70.9272 56.5313L76.9636 66.9897L100.724 108.141L100.714 108.146L100.974 108.578C101.031 108.667 101.089 108.761 101.146 108.844L101.641 109.547L102.636 110.724L102.896 110.99C103.177 111.271 103.469 111.542 103.771 111.797L104.307 112.219L105.177 112.828L106.703 113.677C107.365 114 108.068 114.266 108.776 114.479C109.682 114.75 110.609 114.927 111.552 115.016C112.573 115.109 113.604 115.094 114.62 114.958L115.849 114.745C116.188 114.667 116.531 114.578 116.87 114.474C117.755 114.203 118.609 113.844 119.427 113.401C119.495 113.365 119.568 113.328 119.641 113.287L119.896 113.136L120.724 112.599L121.094 112.333C121.208 112.25 121.318 112.162 121.427 112.078L122.068 111.526L122.448 111.172L123.13 110.453C123.203 110.37 123.287 110.276 123.359 110.188L123.979 109.38L124.271 108.958L124.521 108.578L124.979 107.776L125.25 107.24C125.292 107.146 125.333 107.057 125.375 106.969L125.714 106.167L125.99 105.359L126.146 104.823L126.219 104.557L126.339 104.021C126.354 103.927 126.375 103.844 126.391 103.75L126.578 102.412C126.594 102.234 126.604 102.052 126.615 101.875C126.62 101.787 126.625 101.698 126.625 101.609C126.636 101.427 126.636 101.25 126.636 101.073L126.563 99.7293C126.547 99.5522 126.526 99.3699 126.5 99.1928C126.49 99.1043 126.479 99.0157 126.458 98.9272L126.365 98.3907L126.021 97.0522L125.844 96.5157C125.813 96.422 125.776 96.3334 125.745 96.2449C125.646 95.9741 125.531 95.7032 125.412 95.4428L125.016 94.6355L124.87 94.3699L124.714 94.0991L81.9636 20.0522L81.4897 19.2501C81.4376 19.1563 81.3855 19.073 81.3282 18.9793L81.1615 18.7136C81.1043 18.6199 81.0418 18.5313 80.9845 18.4428L80.8022 18.1772C80.7345 18.0834 80.672 17.9949 80.6043 17.9063L79.9584 17.1043L79.4636 16.5678L79.1095 16.2136L78.297 15.4897L77.8074 15.1095L76.7918 14.4168L76.323 14.1355L74.8282 13.4115L73.2188 12.8543L71.8438 12.5418C70.2345 12.2553 68.5678 12.2449 66.9376 12.5418L65.7449 12.8074C64.797 13.0678 63.8803 13.4272 63.0105 13.8803L62.5209 14.1459L62.0209 14.4168L61.0105 15.1147L60.4115 15.5938C59.7813 16.1303 59.198 16.7188 58.672 17.3647L57.5417 18.974C57.5001 19.047 57.4532 19.1199 57.4115 19.1928L57.4011 19.1876L35.6147 56.9272L33.2188 61.0782L33.1876 61.1355L26.1355 73.3438L22.3126 79.9636L21.5886 81.2188L14.7709 93.0261L14.2813 93.8803L14.0261 94.3386L14.0209 94.3334L14.0001 94.3647L13.349 95.7032C13.3074 95.797 13.2761 95.8855 13.2397 95.9741C13.1355 96.2397 13.0365 96.5105 12.948 96.7761L12.8126 97.2241L12.7136 97.5834L12.5261 98.3907C12.4949 98.5678 12.4636 98.7501 12.4324 98.9272C12.422 99.0157 12.4063 99.1043 12.3959 99.1928C12.3699 99.3699 12.349 99.5522 12.3334 99.7293L12.2813 100.537C12.2761 100.714 12.2709 100.896 12.2709 101.073C12.2709 101.162 12.2709 101.25 12.2761 101.339L12.297 101.875L12.349 102.552L12.4376 103.214C12.4532 103.307 12.4636 103.396 12.4845 103.484L12.5886 104.021L12.7136 104.557L12.7813 104.823C12.8074 104.917 12.8334 105 12.8595 105.094L13.224 106.167L13.5626 106.969C13.6042 107.057 13.6459 107.146 13.6876 107.24L13.8178 107.505C13.8647 107.594 13.9167 107.682 13.9584 107.776L14.2605 108.307L14.7605 109.089L15.3751 109.917L16.0782 110.724C16.1615 110.818 16.2501 110.906 16.3386 110.995C16.6199 111.271 16.9115 111.542 17.2136 111.797L17.8959 112.333L18.3386 112.651L18.672 112.87L19.6199 113.406C19.9897 113.604 20.3647 113.781 20.7449 113.943C22.8647 114.833 25.172 115.167 27.4636 114.943C27.9063 114.896 28.349 114.833 28.7917 114.75L29.922 114.479L30.2553 114.38L31.6772 113.859C32.323 113.583 32.9688 113.245 33.5678 112.87L34.3647 112.333L35.672 111.261L35.9532 110.995L36.4636 110.458L36.7292 110.156L36.922 109.922L37.7136 108.849L38.2084 108.047C38.3126 107.87 38.4063 107.688 38.5053 107.511L38.7657 106.974L38.8699 106.729L39.0886 106.208L39.474 105.094L39.7501 104.026C39.7657 103.932 39.7865 103.844 39.8022 103.755L39.8907 103.219L39.9897 102.417L40.0261 101.953V101.875L40.047 101.339C40.047 101.25 40.047 101.162 40.047 101.073L39.9688 99.7293C39.9584 99.6407 39.948 99.5522 39.9376 99.4636L39.9011 99.2032L39.698 98.1199C39.6772 98.0261 39.6563 97.9428 39.6355 97.8491L39.4897 97.3126C39.4376 97.1355 39.3855 96.9532 39.323 96.7761L39.1355 96.2397L38.9167 95.7032L38.4584 94.7553L38.7292 95.2188L37.6615 93.3438C37.6199 93.2553 37.5782 93.1616 37.5417 93.073L37.4376 92.8074L37.1459 91.7345C37.1355 91.6407 37.1199 91.5574 37.1042 91.4636C37.0522 91.0209 37.0417 90.5678 37.0834 90.1251C37.0938 90.0313 37.1042 89.948 37.1147 89.8543L37.1563 89.6251L37.4636 88.5105C37.4845 88.4168 37.5313 88.3334 37.5678 88.2449L37.6928 87.9741C37.7345 87.8855 37.7865 87.797 37.8334 87.7084L38.3699 86.9011C38.4428 86.8126 38.5157 86.7241 38.5938 86.6355C38.9532 86.2293 39.3803 85.8595 39.8438 85.5626L40.1511 85.3751C40.6459 85.0991 41.1615 84.8907 41.6824 84.7605H41.6876C42.6772 84.5105 43.7032 84.5209 44.6667 84.7605L45.4845 85.0261C45.849 85.1459 46.1876 85.3491 46.5157 85.5626C46.7605 85.7241 47.0001 85.9063 47.2188 86.0991C47.4115 86.2657 47.5886 86.4428 47.7553 86.6355C47.8334 86.7241 47.9063 86.8074 47.9792 86.9011L48.5157 87.7084L49.4011 89.2397L49.5522 89.5418C49.6876 89.8022 49.8126 90.073 49.9324 90.3438L50.1095 90.7501L50.2813 91.1511C50.3907 91.422 50.5001 91.6876 50.599 91.9532L50.7188 92.2813L50.8855 92.7605L51.1407 93.5626C51.172 93.6563 51.1928 93.7397 51.224 93.8334C51.297 94.0991 51.3699 94.3699 51.4428 94.6355C51.4636 94.7293 51.4845 94.8126 51.5053 94.9063L51.6928 95.7084C51.7084 95.8022 51.7292 95.8855 51.7501 95.9793L51.8959 96.7813L52.0574 97.8543C52.0678 97.9428 52.0782 98.0313 52.0886 98.1199L52.1667 98.9272C52.1772 99.0157 52.1824 99.1043 52.1876 99.1928L52.2501 100.266V102.146C52.2449 102.234 52.2397 102.323 52.2397 102.412C52.224 102.677 52.2084 102.948 52.1876 103.214C52.1824 103.307 52.1772 103.396 52.1667 103.484C52.1459 103.75 52.1147 104.021 52.0834 104.287C52.073 104.38 52.0626 104.464 52.0522 104.557C52.0157 104.823 51.9792 105.094 51.9324 105.359C51.9167 105.453 51.9063 105.537 51.8855 105.63L51.7345 106.432L51.4897 107.505L51.2761 108.307L51.0313 109.115C51.0001 109.203 50.9688 109.292 50.9428 109.38C50.8542 109.651 50.7605 109.917 50.6615 110.188L50.5105 110.589L50.0053 111.797C49.9688 111.891 49.9272 111.974 49.8855 112.068L49.5001 112.87C49.4063 113.052 49.3178 113.229 49.2188 113.406L48.7657 114.224L47.948 115.552C47.8907 115.641 47.8282 115.729 47.7709 115.818L47.2032 116.625L46.5261 117.505L46.4428 117.604L45.922 118.234C45.8438 118.323 45.7657 118.412 45.6876 118.5L45.448 118.771L44.573 119.682L43.849 120.375L43.5574 120.646L42.9376 121.182C42.6042 121.458 42.2657 121.729 41.9272 121.984L41.1928 122.521L40.5001 122.995L39.073 123.865L36.9688 124.938C36.0678 125.344 35.1459 125.703 34.198 126.005L32.9063 126.391L31.0678 126.813C30.1407 126.99 29.2084 127.12 28.2657 127.193C26.474 127.339 24.7032 127.307 22.9063 127.078C21.8438 126.948 20.9845 126.781 19.9845 126.542L18.9688 126.271C17.8959 125.964 17.0105 125.641 15.922 125.188L14.2292 124.396L12.7292 123.547L12.698 123.531L11.599 122.833L10.7605 122.25C10.5209 122.078 10.2813 121.901 10.047 121.714L8.7605 120.641L7.62508 119.568C7.53654 119.484 7.44279 119.391 7.35946 119.302L6.14591 117.964C6.06779 117.87 5.99487 117.781 5.92196 117.693L5.49487 117.151L5.40112 117.031L4.52091 115.813L4.16675 115.276C4.10425 115.188 4.05217 115.099 3.99487 115.011L3.83862 114.761L3.35946 113.938L3.20841 113.667L2.67716 112.636L2.02612 111.203L1.61987 110.177L1.33862 109.375C1.30737 109.287 1.28133 109.198 1.25008 109.109L1.08341 108.573L0.890706 107.88L0.604248 106.693C0.583415 106.604 0.562582 106.516 0.546956 106.427L0.229248 104.547C0.218832 104.458 0.208415 104.37 0.197998 104.281L0.041748 102.406C0.03654 102.313 0.0313314 102.229 0.0313314 102.136L0.026123 100.261C0.031331 100.167 0.0313304 100.078 0.0365397 99.9897L0.156331 98.3855L0.187581 98.1147C0.197997 98.0261 0.208414 97.9376 0.218831 97.8491L0.239665 97.7032L0.427165 96.5053C0.447997 96.4168 0.463623 96.323 0.479248 96.2397L0.91154 94.3595C0.937581 94.2709 0.963623 94.1824 0.984456 94.0938L1.16675 93.4793L1.59383 92.2136C1.62508 92.1251 1.66154 92.0366 1.698 91.9428L2.16154 90.8022L2.24487 90.5991L2.40112 90.2553L2.75529 89.5313C2.80217 89.4376 2.84383 89.3491 2.89071 89.2605L3.03133 88.9949L3.59904 87.9636L3.59383 87.9584L3.78654 87.6511L16.3334 65.9168L19.0209 61.2709L19.1042 61.1303L19.0678 61.1407Z" fill="white"/>
</g>
</svg>
