<svg xmlns="http://www.w3.org/2000/svg" xmlns:xlink="http://www.w3.org/1999/xlink" width="500" zoomAndPan="magnify" viewBox="0 0 375 374.999991" height="500" preserveAspectRatio="xMidYMid meet" version="1.0"><defs><clipPath id="9928bf0da5"><path d="M 135.421875 135 L 239.671875 135 L 239.671875 230.234375 L 135.421875 230.234375 Z M 135.421875 135 " clip-rule="nonzero"/></clipPath></defs><rect x="-37.5" width="450" fill="#ffffff" y="-37.499999" height="449.999989" fill-opacity="1"/><rect x="-37.5" width="450" fill="#ffffff" y="-37.499999" height="449.999989" fill-opacity="1"/><g clip-path="url(#9928bf0da5)"><path fill="#000000" d="M 149.722656 180.855469 L 155.011719 171.699219 L 169.71875 146.21875 L 170.535156 144.808594 L 170.527344 144.800781 L 170.554688 144.75 L 170.585938 144.695312 L 171.355469 143.484375 L 172.007812 142.59375 L 172.664062 141.789062 C 172.722656 141.71875 172.78125 141.652344 172.84375 141.585938 L 174.011719 140.378906 L 174.917969 139.574219 C 175.167969 139.367188 175.421875 139.167969 175.679688 138.972656 L 176.234375 138.570312 L 176.832031 138.167969 L 177.480469 137.765625 L 177.828125 137.566406 L 179.464844 136.738281 L 180.378906 136.359375 C 180.753906 136.210938 181.132812 136.078125 181.511719 135.957031 L 182.425781 135.6875 L 183.90625 135.351562 C 184.347656 135.269531 184.785156 135.203125 185.230469 135.148438 C 187.539062 134.878906 189.820312 135.015625 192.082031 135.550781 C 192.957031 135.761719 193.808594 136.03125 194.644531 136.355469 L 195.148438 136.5625 L 196.425781 137.160156 L 197.527344 137.777344 L 197.542969 137.789062 L 197.699219 137.882812 L 198.273438 138.246094 L 199.007812 138.75 L 199.566406 139.171875 L 199.828125 139.378906 L 200.804688 140.222656 L 201.773438 141.183594 C 201.835938 141.253906 201.898438 141.316406 201.957031 141.386719 L 202.3125 141.789062 L 202.386719 141.871094 L 202.71875 142.273438 L 202.992188 142.617188 L 203.417969 143.199219 L 203.867188 143.859375 L 204.335938 144.609375 L 204.582031 145.042969 L 204.789062 145.414062 L 236.734375 200.738281 L 236.898438 200.988281 L 237.121094 201.390625 L 237.304688 201.753906 L 237.347656 201.832031 L 237.890625 202.957031 L 237.894531 202.964844 L 238.308594 203.964844 C 238.332031 204.03125 238.355469 204.097656 238.382812 204.164062 L 238.535156 204.597656 L 238.949219 205.976562 C 238.96875 206.046875 238.984375 206.109375 239 206.179688 L 239.296875 207.585938 C 239.308594 207.652344 239.320312 207.71875 239.332031 207.789062 L 239.453125 208.679688 L 239.503906 209.195312 C 239.511719 209.261719 239.515625 209.332031 239.519531 209.394531 L 239.578125 210.804688 C 239.578125 210.871094 239.578125 210.9375 239.578125 211.003906 L 239.515625 212.410156 C 239.511719 212.480469 239.503906 212.546875 239.5 212.613281 L 239.460938 213.015625 L 239.253906 214.421875 C 239.242188 214.492188 239.230469 214.554688 239.21875 214.625 L 239.109375 215.148438 L 238.71875 216.632812 L 238.65625 216.835938 L 238.449219 217.4375 L 238.292969 217.867188 C 238.03125 218.5625 237.710938 219.277344 237.367188 219.933594 L 236.394531 221.601562 L 235.882812 222.347656 L 235.496094 222.871094 C 235.441406 222.9375 235.390625 223.007812 235.339844 223.070312 L 234.109375 224.480469 C 234.042969 224.546875 233.976562 224.613281 233.914062 224.679688 L 233.066406 225.484375 C 232.835938 225.691406 232.601562 225.890625 232.359375 226.085938 L 231.847656 226.488281 L 231.578125 226.691406 C 231.390625 226.828125 231.199219 226.960938 231.007812 227.09375 L 230.109375 227.679688 L 229.375 228.09375 L 228.792969 228.402344 C 227.902344 228.84375 227.066406 229.199219 226.113281 229.511719 C 225.652344 229.664062 225.1875 229.796875 224.71875 229.914062 L 223.820312 230.113281 C 223.417969 230.195312 223.015625 230.261719 222.609375 230.316406 C 220.878906 230.542969 219.183594 230.546875 217.429688 230.316406 L 217.425781 230.316406 L 216.171875 230.105469 C 215.015625 229.875 213.878906 229.542969 212.785156 229.109375 L 211.25 228.425781 L 210.269531 227.898438 L 209.28125 227.296875 L 208.410156 226.691406 L 208.027344 226.410156 L 206.921875 225.488281 L 206.671875 225.257812 L 206.074219 224.683594 C 206.011719 224.613281 205.945312 224.550781 205.878906 224.480469 L 204.980469 223.476562 C 204.921875 223.410156 204.867188 223.34375 204.8125 223.273438 L 204.492188 222.871094 L 204.378906 222.722656 L 203.90625 222.070312 L 203.839844 221.976562 L 203.300781 221.148438 L 203.265625 221.09375 L 202.882812 220.457031 L 202.652344 220.054688 L 185.03125 189.535156 L 181.273438 183.03125 L 180.476562 181.625 C 180.445312 181.558594 180.414062 181.492188 180.386719 181.421875 L 180.304688 181.222656 L 180.089844 180.417969 C 180.078125 180.351562 180.070312 180.285156 180.058594 180.214844 C 180.015625 179.886719 180.011719 179.542969 180.042969 179.210938 C 180.046875 179.144531 180.054688 179.078125 180.066406 179.011719 L 180.09375 178.835938 L 180.324219 178.003906 C 180.351562 177.933594 180.378906 177.867188 180.40625 177.800781 L 180.5 177.601562 C 180.535156 177.53125 180.566406 177.464844 180.605469 177.398438 L 181.007812 176.796875 C 181.0625 176.726562 181.117188 176.660156 181.171875 176.59375 C 181.441406 176.289062 181.761719 176.011719 182.109375 175.789062 L 182.34375 175.648438 C 182.710938 175.441406 183.097656 175.285156 183.488281 175.1875 L 183.492188 175.1875 C 184.238281 175 185.003906 175.007812 185.726562 175.1875 L 186.339844 175.386719 C 186.609375 175.496094 186.867188 175.632812 187.113281 175.789062 C 187.300781 175.910156 187.476562 176.046875 187.644531 176.191406 C 187.785156 176.316406 187.921875 176.449219 188.046875 176.59375 C 188.105469 176.660156 188.160156 176.726562 188.214844 176.796875 L 188.617188 177.398438 L 193.144531 185.242188 L 210.964844 216.105469 L 210.957031 216.109375 L 211.152344 216.433594 C 211.195312 216.5 211.238281 216.570312 211.28125 216.632812 L 211.652344 217.160156 L 212.398438 218.042969 L 212.59375 218.242188 C 212.804688 218.453125 213.023438 218.65625 213.25 218.847656 L 213.652344 219.164062 L 214.304688 219.621094 L 215.449219 220.257812 C 215.945312 220.5 216.472656 220.699219 217.003906 220.859375 C 217.683594 221.0625 218.378906 221.195312 219.085938 221.261719 C 219.851562 221.332031 220.625 221.320312 221.386719 221.21875 L 222.308594 221.058594 C 222.5625 221 222.820312 220.933594 223.074219 220.855469 C 223.738281 220.652344 224.378906 220.382812 224.992188 220.050781 C 225.042969 220.023438 225.097656 219.996094 225.152344 219.964844 L 225.34375 219.851562 L 225.964844 219.449219 L 226.242188 219.25 C 226.328125 219.1875 226.410156 219.121094 226.492188 219.058594 L 226.972656 218.644531 L 227.257812 218.378906 L 227.769531 217.839844 C 227.824219 217.777344 227.886719 217.707031 227.941406 217.640625 L 228.40625 217.035156 L 228.625 216.71875 L 228.8125 216.433594 L 229.15625 215.832031 L 229.359375 215.429688 C 229.390625 215.359375 229.421875 215.292969 229.453125 215.226562 L 229.707031 214.625 L 229.914062 214.019531 L 230.03125 213.617188 L 230.085938 213.417969 L 230.175781 213.015625 C 230.1875 212.945312 230.203125 212.882812 230.214844 212.8125 L 230.355469 211.808594 C 230.367188 211.675781 230.375 211.539062 230.382812 211.40625 C 230.386719 211.339844 230.390625 211.273438 230.390625 211.207031 C 230.398438 211.070312 230.398438 210.9375 230.398438 210.804688 L 230.34375 209.796875 C 230.332031 209.664062 230.316406 209.527344 230.296875 209.394531 C 230.289062 209.328125 230.28125 209.261719 230.265625 209.195312 L 230.195312 208.792969 L 229.9375 207.789062 L 229.804688 207.386719 C 229.78125 207.316406 229.753906 207.25 229.730469 207.183594 C 229.65625 206.980469 229.570312 206.777344 229.480469 206.582031 L 229.183594 205.976562 L 229.074219 205.777344 L 228.957031 205.574219 L 196.894531 150.039062 L 196.539062 149.4375 C 196.5 149.367188 196.460938 149.304688 196.417969 149.234375 L 196.292969 149.035156 C 196.25 148.964844 196.203125 148.898438 196.160156 148.832031 L 196.023438 148.632812 C 195.972656 148.5625 195.925781 148.496094 195.875 148.429688 L 195.390625 147.828125 L 195.019531 147.425781 L 194.753906 147.160156 L 194.144531 146.617188 L 193.777344 146.332031 L 193.015625 145.8125 L 192.664062 145.601562 L 191.542969 145.058594 L 190.335938 144.640625 L 189.304688 144.40625 C 188.097656 144.191406 186.847656 144.183594 185.625 144.40625 L 184.730469 144.605469 C 184.019531 144.800781 183.332031 145.070312 182.679688 145.410156 L 182.3125 145.609375 L 181.9375 145.8125 L 181.179688 146.335938 L 180.730469 146.695312 C 180.257812 147.097656 179.820312 147.539062 179.425781 148.023438 L 178.578125 149.230469 C 178.546875 149.285156 178.511719 149.339844 178.480469 149.394531 L 178.472656 149.390625 L 162.132812 177.695312 L 160.335938 180.808594 L 160.3125 180.851562 L 155.023438 190.007812 L 152.15625 194.972656 L 151.613281 195.914062 L 146.5 204.769531 L 146.132812 205.410156 L 145.941406 205.753906 L 145.9375 205.75 L 145.921875 205.773438 L 145.433594 206.777344 C 145.402344 206.847656 145.378906 206.914062 145.351562 206.980469 C 145.273438 207.179688 145.199219 207.382812 145.132812 207.582031 L 145.03125 207.917969 L 144.957031 208.1875 L 144.816406 208.792969 C 144.792969 208.925781 144.769531 209.0625 144.746094 209.195312 C 144.738281 209.261719 144.726562 209.328125 144.71875 209.394531 C 144.699219 209.527344 144.683594 209.664062 144.671875 209.796875 L 144.632812 210.402344 C 144.628906 210.535156 144.625 210.671875 144.625 210.804688 C 144.625 210.871094 144.625 210.9375 144.628906 211.003906 L 144.644531 211.40625 L 144.683594 211.914062 L 144.75 212.410156 C 144.761719 212.480469 144.769531 212.546875 144.785156 212.613281 L 144.863281 213.015625 L 144.957031 213.417969 L 145.007812 213.617188 C 145.027344 213.6875 145.046875 213.75 145.066406 213.820312 L 145.339844 214.625 L 145.59375 215.226562 C 145.625 215.292969 145.65625 215.359375 145.6875 215.429688 L 145.785156 215.628906 C 145.820312 215.695312 145.859375 215.761719 145.890625 215.832031 L 146.117188 216.230469 L 146.492188 216.816406 L 146.953125 217.4375 L 147.480469 218.042969 C 147.542969 218.113281 147.609375 218.179688 147.675781 218.246094 C 147.886719 218.453125 148.105469 218.65625 148.332031 218.847656 L 148.84375 219.25 L 149.175781 219.488281 L 149.425781 219.652344 L 150.136719 220.054688 C 150.414062 220.203125 150.695312 220.335938 150.980469 220.457031 C 152.570312 221.125 154.300781 221.375 156.019531 221.207031 C 156.351562 221.171875 156.683594 221.125 157.015625 221.0625 L 157.863281 220.859375 L 158.113281 220.785156 L 159.179688 220.394531 C 159.664062 220.1875 160.148438 219.933594 160.597656 219.652344 L 161.195312 219.25 L 162.175781 218.445312 L 162.386719 218.246094 L 162.769531 217.84375 L 162.96875 217.617188 L 163.113281 217.441406 L 163.707031 216.636719 L 164.078125 216.035156 C 164.15625 215.902344 164.226562 215.765625 164.300781 215.632812 L 164.496094 215.230469 L 164.574219 215.046875 L 164.738281 214.65625 L 165.027344 213.820312 L 165.234375 213.019531 C 165.246094 212.949219 165.261719 212.882812 165.273438 212.816406 L 165.339844 212.414062 L 165.414062 211.8125 L 165.441406 211.464844 L 165.441406 211.40625 L 165.457031 211.003906 C 165.457031 210.9375 165.457031 210.871094 165.457031 210.804688 L 165.398438 209.796875 C 165.390625 209.730469 165.382812 209.664062 165.375 209.597656 L 165.347656 209.402344 L 165.195312 208.589844 C 165.179688 208.519531 165.164062 208.457031 165.148438 208.386719 L 165.039062 207.984375 C 165 207.851562 164.960938 207.714844 164.914062 207.582031 L 164.773438 207.179688 L 164.609375 206.777344 L 164.265625 206.066406 L 164.46875 206.414062 L 163.667969 205.007812 C 163.636719 204.941406 163.605469 204.871094 163.578125 204.804688 L 163.5 204.605469 L 163.28125 203.800781 C 163.273438 203.730469 163.261719 203.667969 163.25 203.597656 C 163.210938 203.265625 163.203125 202.925781 163.234375 202.59375 C 163.242188 202.523438 163.25 202.460938 163.257812 202.390625 L 163.289062 202.21875 L 163.519531 201.382812 C 163.535156 201.3125 163.570312 201.25 163.597656 201.183594 L 163.691406 200.980469 C 163.722656 200.914062 163.761719 200.847656 163.796875 200.78125 L 164.199219 200.175781 C 164.253906 200.109375 164.308594 200.042969 164.367188 199.976562 C 164.636719 199.671875 164.957031 199.394531 165.304688 199.171875 L 165.535156 199.03125 C 165.90625 198.824219 166.292969 198.667969 166.683594 198.570312 L 166.6875 198.570312 C 167.429688 198.382812 168.199219 198.390625 168.921875 198.570312 L 169.535156 198.769531 C 169.808594 198.859375 170.0625 199.011719 170.308594 199.171875 C 170.492188 199.292969 170.671875 199.429688 170.835938 199.574219 C 170.980469 199.699219 171.113281 199.832031 171.238281 199.976562 C 171.296875 200.042969 171.351562 200.105469 171.40625 200.175781 L 171.808594 200.78125 L 172.472656 201.929688 L 172.585938 202.15625 C 172.6875 202.351562 172.78125 202.554688 172.871094 202.757812 L 173.003906 203.0625 L 173.132812 203.363281 C 173.214844 203.566406 173.296875 203.765625 173.371094 203.964844 L 173.460938 204.210938 L 173.585938 204.570312 L 173.777344 205.171875 C 173.800781 205.242188 173.816406 205.304688 173.839844 205.375 C 173.894531 205.574219 173.949219 205.777344 174.003906 205.976562 C 174.019531 206.046875 174.035156 206.109375 174.050781 206.179688 L 174.191406 206.78125 C 174.203125 206.851562 174.21875 206.914062 174.234375 206.984375 L 174.34375 207.585938 L 174.464844 208.390625 C 174.472656 208.457031 174.480469 208.523438 174.488281 208.589844 L 174.546875 209.195312 C 174.554688 209.261719 174.558594 209.328125 174.5625 209.394531 L 174.609375 210.199219 L 174.609375 211.609375 C 174.605469 211.675781 174.601562 211.742188 174.601562 211.808594 C 174.589844 212.007812 174.578125 212.210938 174.5625 212.410156 C 174.558594 212.480469 174.554688 212.546875 174.546875 212.613281 C 174.53125 212.8125 174.507812 213.015625 174.484375 213.214844 C 174.476562 213.285156 174.46875 213.347656 174.460938 213.417969 C 174.433594 213.617188 174.40625 213.820312 174.371094 214.019531 C 174.359375 214.089844 174.351562 214.152344 174.335938 214.222656 L 174.222656 214.824219 L 174.039062 215.628906 L 173.878906 216.230469 L 173.695312 216.835938 C 173.671875 216.902344 173.648438 216.96875 173.628906 217.035156 C 173.5625 217.238281 173.492188 217.4375 173.417969 217.640625 L 173.304688 217.941406 L 172.925781 218.847656 C 172.898438 218.917969 172.867188 218.980469 172.835938 219.050781 L 172.546875 219.652344 C 172.476562 219.789062 172.410156 219.921875 172.335938 220.054688 L 171.996094 220.667969 L 171.382812 221.664062 C 171.339844 221.730469 171.292969 221.796875 171.25 221.863281 L 170.824219 222.46875 L 170.316406 223.128906 L 170.253906 223.203125 L 169.863281 223.675781 C 169.804688 223.742188 169.746094 223.808594 169.6875 223.875 L 169.507812 224.078125 L 168.851562 224.761719 L 168.308594 225.28125 L 168.089844 225.484375 L 167.625 225.886719 C 167.375 226.09375 167.121094 226.296875 166.867188 226.488281 L 166.316406 226.890625 L 165.796875 227.246094 L 164.726562 227.898438 L 163.148438 228.703125 C 162.472656 229.007812 161.78125 229.277344 161.070312 229.503906 L 160.101562 229.792969 L 158.722656 230.109375 C 158.027344 230.242188 157.328125 230.339844 156.621094 230.394531 C 155.277344 230.503906 153.949219 230.480469 152.601562 230.308594 C 151.804688 230.210938 151.160156 230.085938 150.410156 229.90625 L 149.648438 229.703125 C 148.84375 229.472656 148.179688 229.230469 147.363281 228.890625 L 146.09375 228.296875 L 144.96875 227.660156 L 144.945312 227.648438 L 144.121094 227.125 L 143.492188 226.6875 C 143.3125 226.558594 143.132812 226.425781 142.957031 226.285156 L 141.992188 225.480469 L 141.140625 224.675781 C 141.074219 224.613281 141.003906 224.542969 140.941406 224.476562 L 140.03125 223.472656 C 139.972656 223.402344 139.917969 223.335938 139.863281 223.269531 L 139.542969 222.863281 L 139.472656 222.773438 L 138.8125 221.859375 L 138.546875 221.457031 C 138.5 221.390625 138.460938 221.324219 138.417969 221.257812 L 138.300781 221.070312 L 137.941406 220.453125 L 137.828125 220.25 L 137.429688 219.476562 L 136.941406 218.402344 L 136.636719 217.632812 L 136.425781 217.03125 C 136.402344 216.964844 136.382812 216.898438 136.359375 216.832031 L 136.234375 216.429688 L 136.089844 215.910156 L 135.875 215.019531 C 135.859375 214.953125 135.84375 214.886719 135.832031 214.820312 L 135.59375 213.410156 C 135.585938 213.34375 135.578125 213.277344 135.570312 213.210938 L 135.453125 211.804688 C 135.449219 211.734375 135.445312 211.671875 135.445312 211.601562 L 135.441406 210.195312 C 135.445312 210.125 135.445312 210.058594 135.449219 209.992188 L 135.539062 208.789062 L 135.5625 208.585938 C 135.570312 208.519531 135.578125 208.453125 135.585938 208.386719 L 135.601562 208.277344 L 135.742188 207.378906 C 135.757812 207.3125 135.769531 207.242188 135.78125 207.179688 L 136.105469 205.769531 C 136.125 205.703125 136.144531 205.636719 136.160156 205.570312 L 136.296875 205.109375 L 136.617188 204.160156 C 136.640625 204.09375 136.667969 204.027344 136.695312 203.957031 L 137.042969 203.101562 L 137.105469 202.949219 L 137.222656 202.691406 L 137.488281 202.148438 C 137.523438 202.078125 137.554688 202.011719 137.589844 201.945312 L 137.695312 201.746094 L 138.121094 200.972656 L 138.117188 200.96875 L 138.261719 200.738281 L 147.671875 184.4375 L 149.6875 180.953125 L 149.75 180.847656 Z M 149.722656 180.855469 " fill-opacity="1" fill-rule="evenodd"/></g></svg>