<?xml version="1.0" standalone="no"?>
<!DOCTYPE svg PUBLIC "-//W3C//DTD SVG 20010904//EN"
 "http://www.w3.org/TR/2001/REC-SVG-20010904/DTD/svg10.dtd">
<svg version="1.0" xmlns="http://www.w3.org/2000/svg"
 width="640.000000pt" height="640.000000pt" viewBox="0 0 640.000000 640.000000"
 preserveAspectRatio="xMidYMid meet">
<metadata>
Created by potrace 1.16, written by Peter Selinger 2001-2019
</metadata>
<g transform="translate(0.000000,640.000000) scale(0.100000,-0.100000)"
fill="#000000" stroke="none">
<path d="M848 5194 c-62 -33 -58 61 -58 -1481 0 -935 4 -1420 10 -1445 6 -22
23 -46 39 -58 29 -20 36 -20 1305 -20 1013 0 1277 -3 1280 -13 2 -6 11 -52 20
-102 10 -49 36 -138 60 -197 253 -625 1005 -874 1588 -525 489 293 668 930
405 1442 -94 181 -268 363 -430 450 l-37 20 0 937 0 938 -29 32 -29 33 -2049
2 c-1798 2 -2051 0 -2075 -13z m3790 -193 c-4 -13 -1615 -1369 -1652 -1392
-44 -27 -114 -25 -157 4 -19 13 -282 232 -584 487 -303 255 -665 560 -806 679
l-257 216 687 5 c1296 10 2773 10 2769 1z m-2983 -672 c259 -217 600 -504 758
-637 159 -133 312 -254 340 -269 42 -22 69 -27 142 -31 154 -7 140 -15 625
393 150 127 503 424 784 661 l511 430 6 -160 c9 -237 10 -1366 2 -1366 -5 0
-51 9 -103 20 -169 35 -355 23 -542 -36 -382 -121 -674 -459 -740 -859 l-14
-80 -1212 -3 -1212 -2 0 1246 0 1246 93 -79 c50 -43 303 -257 562 -474z m3024
-1160 c166 -26 328 -109 460 -233 278 -265 354 -674 190 -1024 -96 -207 -259
-361 -476 -452 -190 -80 -457 -82 -652 -5 -378 148 -609 521 -570 923 30 306
212 573 484 710 173 87 357 113 564 81z"/>
</g>
</svg>
